<svg id="_x31__x2C_5" enable-background="new 0 0 24 24" height="512" viewBox="0 0 24 24" width="512" xmlns="http://www.w3.org/2000/svg"><g><path d="m13.5 24c-3.584 0-6.5-2.916-6.5-6.5v-2.75c0-.414.336-.75.75-.75h11.5c.414 0 .75.336.75.75v2.75c0 3.584-2.916 6.5-6.5 6.5zm-5-8.5v2c0 2.757 2.243 5 5 5s5-2.243 5-5v-2z"/></g><g><path d="m11.007 12c-.209 0-.418-.088-.566-.258-.271-.313-.238-.787.074-1.059.168-.146.251-.329.232-.517-.02-.203-.155-.392-.373-.518-.643-.371-1.049-.981-1.114-1.672-.064-.674.206-1.326.741-1.792.313-.271.786-.237 1.059.074.271.313.238.787-.074 1.059-.168.146-.251.329-.232.517.02.203.155.392.373.518.643.372 1.049.982 1.114 1.674.064.674-.206 1.326-.741 1.792-.144.121-.318.182-.493.182z"/></g><g><path d="m15.757 12c-.209 0-.418-.088-.566-.258-.271-.313-.238-.787.074-1.059.168-.146.251-.329.232-.517-.02-.203-.155-.392-.373-.518-.643-.372-1.049-.982-1.114-1.674-.064-.674.206-1.326.741-1.792.313-.271.786-.237 1.059.074.271.313.238.787-.074 1.059-.168.146-.251.329-.232.517.02.203.155.392.373.518.643.372 1.049.982 1.114 1.674.064.674-.206 1.326-.741 1.792-.144.123-.318.184-.493.184z"/></g><g><path d="m20.25 24h-13.5c-.414 0-.75-.336-.75-.75s.336-.75.75-.75h13.5c.414 0 .75.336.75.75s-.336.75-.75.75z"/></g><g><path d="m21.5 20h-2.25c-.414 0-.75-.336-.75-.75s.336-.75.75-.75h2.25c.552 0 1-.448 1-1s-.448-1-1-1h-2c-.414 0-.75-.336-.75-.75s.336-.75.75-.75h2c1.379 0 2.5 1.121 2.5 2.5s-1.121 2.5-2.5 2.5z"/></g><g><path d="m4.25 19h-1.5c-1.517 0-2.75-1.233-2.75-2.75v-13.5c0-1.517 1.233-2.75 2.75-2.75h15.5c1.517 0 2.75 1.233 2.75 2.75v8.5c0 .414-.336.75-.75.75s-.75-.336-.75-.75v-8.5c0-.689-.561-1.25-1.25-1.25h-15.5c-.689 0-1.25.561-1.25 1.25v13.5c0 .689.561 1.25 1.25 1.25h1.5c.414 0 .75.336.75.75s-.336.75-.75.75z"/></g><g><path d="m8.25 5h-7.5c-.414 0-.75-.336-.75-.75s.336-.75.75-.75h7.5c.414 0 .75.336.75.75s-.336.75-.75.75z"/></g><g><path d="m20 5h-2.25c-.414 0-.75-.336-.75-.75s.336-.75.75-.75h2.25c.414 0 .75.336.75.75s-.336.75-.75.75z"/></g><g><path d="m13.25 5h-.5c-.414 0-.75-.336-.75-.75s.336-.75.75-.75h.5c.414 0 .75.336.75.75s-.336.75-.75.75z"/></g></svg>