<svg id="Layer_3" enable-background="new 0 0 64 64" height="512" viewBox="0 0 64 64" width="512" xmlns="http://www.w3.org/2000/svg"><path d="m62.234 42c.476-.531.766-1.232.766-2 0-1.654-1.346-3-3-3h-22c-.342 0-.677.035-1 .101v-5.408l7.351-2.757c.292-.11.517-.35.607-.649.089-.299.035-.623-.149-.875l-8-11-.015.011c-.031-.042-.049-.092-.087-.13l-1.171-1.172c-2.014-2.013-4.69-3.121-7.536-3.121h-4v-2c2.206 0 4-1.794 4-4s-1.794-4-4-4-4 1.794-4 4h2c0-1.103.897-2 2-2s2 .897 2 2-.897 2-2 2-2 .897-2 2v2h-4c-2.846 0-5.522 1.108-7.536 3.121l-1.171 1.172c-.038.038-.056.087-.087.13l-.015-.011-8 11c-.184.252-.239.576-.149.875.09.3.314.539.607.649l7.351 2.757v17.307c0 .553.448 1 1 1h23c0 1.641.806 3.088 2.031 4-1.225.912-2.031 2.359-2.031 4 0 2.757 2.243 5 5 5h22c1.654 0 3-1.346 3-3 0-.768-.29-1.469-.766-2 .476-.531.766-1.232.766-2 0-.771-.301-1.468-.78-2 .48-.532.78-1.229.78-2 0-.768-.29-1.469-.766-2 .476-.531.766-1.232.766-2 0-.771-.301-1.468-.78-2 .48-.532.78-1.229.78-2 0-.768-.29-1.469-.766-2zm-2.234-3c.551 0 1 .448 1 1s-.449 1-1 1h-22c-.552 0-1 .447-1 1s.448 1 1 1h22c.551 0 1 .448 1 1s-.449 1-1 1h-22c-1.654 0-3-1.346-3-3s1.346-3 3-3zm-23-9.443v-9.482l5.418 7.45zm-10-15.557c0 2.206-1.794 4-4 4s-4-1.794-4-4zm-23.418 13.525 5.418-7.45v9.482zm29.842 20.475h-22.424v-2h20v-2h-20v-26.586l.878-.879c1.397-1.396 3.188-2.258 5.122-2.479.031 3.283 2.71 5.944 6 5.944s5.969-2.661 6-5.943c1.934.221 3.725 1.082 5.122 2.479l.878.878v20.612c-1.207.914-2 2.348-2 3.974 0 1.641.806 3.088 2.031 4-.694.517-1.255 1.199-1.607 2zm1.576 2c0-1.654 1.346-3 3-3h22c.551 0 1 .448 1 1s-.449 1-1 1h-22c-.552 0-1 .447-1 1s.448 1 1 1h22c.551 0 1 .448 1 1s-.449 1-1 1h-22c-1.654 0-3-1.346-3-3zm3 9h22c.551 0 1 .448 1 1s-.449 1-1 1h-22c-1.654 0-3-1.346-3-3s1.346-3 3-3h22c.551 0 1 .448 1 1s-.449 1-1 1h-22c-.552 0-1 .447-1 1s.448 1 1 1z"/><path d="m40.684 6.948c1.582.528 2.841 1.787 3.368 3.368.136.409.517.684.948.684s.812-.275.949-.684c.527-1.581 1.786-2.84 3.368-3.368.408-.136.683-.517.683-.948s-.275-.812-.684-.948c-1.582-.528-2.841-1.787-3.368-3.368-.136-.409-.517-.684-.948-.684s-.812.275-.949.684c-.527 1.581-1.786 2.84-3.368 3.368-.408.136-.683.517-.683.948s.275.812.684.948zm4.316-2.752c.492.7 1.104 1.312 1.804 1.804-.7.492-1.312 1.104-1.804 1.804-.492-.7-1.104-1.312-1.804-1.804.7-.492 1.312-1.104 1.804-1.804z"/><path d="m10.316 54.052c-1.582-.528-2.841-1.787-3.368-3.368-.136-.409-.517-.684-.948-.684s-.812.275-.949.684c-.527 1.581-1.786 2.84-3.368 3.368-.408.136-.683.517-.683.948s.275.812.684.948c1.582.528 2.841 1.787 3.368 3.368.136.409.517.684.948.684s.812-.275.949-.684c.527-1.581 1.786-2.84 3.368-3.368.408-.136.683-.517.683-.948s-.275-.812-.684-.948zm-4.316 2.752c-.492-.7-1.104-1.312-1.804-1.804.7-.492 1.312-1.104 1.804-1.804.492.7 1.104 1.312 1.804 1.804-.7.492-1.312 1.104-1.804 1.804z"/></svg>